<?xml version="1.0" encoding="UTF-8" standalone="no"?>
<svg
   height="144"
   viewBox="0 -960 5760 5760"
   width="144"
   fill="#013048"
   version="1.1"
   id="svg866"
   sodipodi:docname="logo_144x144.svg"
   inkscape:version="1.1.2 (0a00cf5339, 2022-02-04)"
   xmlns:inkscape="http://www.inkscape.org/namespaces/inkscape"
   xmlns:sodipodi="http://sodipodi.sourceforge.net/DTD/sodipodi-0.dtd"
   xmlns="http://www.w3.org/2000/svg"
   xmlns:svg="http://www.w3.org/2000/svg">
  <defs
     id="defs870" />
  <sodipodi:namedview
     id="namedview868"
     pagecolor="#ffffff"
     bordercolor="#666666"
     borderopacity="1.0"
     inkscape:pageshadow="2"
     inkscape:pageopacity="0.0"
     inkscape:pagecheckerboard="0"
     showgrid="false"
     inkscape:zoom="4.1041667"
     inkscape:cx="72.730964"
     inkscape:cy="51.654822"
     inkscape:window-width="1920"
     inkscape:window-height="1003"
     inkscape:window-x="0"
     inkscape:window-y="40"
     inkscape:window-maximized="1"
     inkscape:current-layer="svg866" />
  <rect
     style="fill:#ffffff;stroke:#f80a0a;stroke-width:0;stroke-linecap:round;stroke-linejoin:round;stroke-miterlimit:4;stroke-dasharray:none;stop-color:#000000"
     id="rect843"
     width="5760"
     height="5760"
     x="-3.4106051e-13"
     y="-960"
     ry="919.02209" />
  <path
     d="m 2880,2920 q 85,0 142.5,-57.5 57.5,-57.5 57.5,-142.5 0,-85 -57.5,-142.5 Q 2965,2520 2880,2520 q -85,0 -142.5,57.5 -57.5,57.5 -57.5,142.5 0,85 57.5,142.5 57.5,57.5 142.5,57.5 z m 0,-800 q 85,0 142.5,-57.5 57.5,-57.5 57.5,-142.5 0,-85 -57.5,-142.5 Q 2965,1720 2880,1720 q -85,0 -142.5,57.5 -57.5,57.5 -57.5,142.5 0,85 57.5,142.5 57.5,57.5 142.5,57.5 z m 0,-800 q 85,0 142.5,-57.5 57.5,-57.5 57.5,-142.5 0,-85 -57.5,-142.5 Q 2965,920 2880,920 q -85,0 -142.5,57.5 -57.5,57.5 -57.5,142.5 0,85 57.5,142.5 57.5,57.5 142.5,57.5 z M 4480,3520 H 1280 Q 1115,3520 997.5,3402.5 880,3285 880,3120 v -800 q 165,0 282.5,-117.5 Q 1280,2085 1280,1920 1280,1755 1162.5,1637.5 1045,1520 880,1520 V 720 Q 880,555 997.5,437.5 1115,320 1280,320 h 3200 q 165,0 282.5,117.5 Q 4880,555 4880,720 v 800 q -165,0 -282.5,117.5 Q 4480,1755 4480,1920 q 0,165 117.5,282.5 Q 4715,2320 4880,2320 v 800 q 0,165 -117.5,282.5 Q 4645,3520 4480,3520 Z m 0,-400 V 2610 Q 4295,2500 4187.5,2317.5 4080,2135 4080,1920 4080,1705 4187.5,1522.5 4295,1340 4480,1230 V 720 H 1280 v 510 q 185,110 292.5,292.5 107.5,182.5 107.5,397.5 0,215 -107.5,397.5 Q 1465,2500 1280,2610 v 510 z M 2880,1920 Z"
     id="path864"
     style="stroke-width:5" />
</svg>
