<?xml version="1.0" encoding="UTF-8" standalone="no"?>
<svg
   height="24px"
   viewBox="0 -960 960 960"
   width="24px"
   fill="#013048"
   version="1.1"
   id="svg1683"
   sodipodi:docname="logo.svg"
   inkscape:version="1.1.2 (0a00cf5339, 2022-02-04)"
   xmlns:inkscape="http://www.inkscape.org/namespaces/inkscape"
   xmlns:sodipodi="http://sodipodi.sourceforge.net/DTD/sodipodi-0.dtd"
   xmlns="http://www.w3.org/2000/svg"
   xmlns:svg="http://www.w3.org/2000/svg">
  <defs
     id="defs1687" />
  <sodipodi:namedview
     id="namedview1685"
     pagecolor="#ffffff"
     bordercolor="#666666"
     borderopacity="1.0"
     inkscape:pageshadow="2"
     inkscape:pageopacity="0.0"
     inkscape:pagecheckerboard="0"
     showgrid="false"
     inkscape:zoom="32.833333"
     inkscape:cx="11.984772"
     inkscape:cy="12"
     inkscape:window-width="1920"
     inkscape:window-height="1003"
     inkscape:window-x="0"
     inkscape:window-y="40"
     inkscape:window-maximized="1"
     inkscape:current-layer="svg1683" />
  <path
     d="M480-280q17 0 28.5-11.5T520-320q0-17-11.5-28.5T480-360q-17 0-28.5 11.5T440-320q0 17 11.5 28.5T480-280Zm0-160q17 0 28.5-11.5T520-480q0-17-11.5-28.5T480-520q-17 0-28.5 11.5T440-480q0 17 11.5 28.5T480-440Zm0-160q17 0 28.5-11.5T520-640q0-17-11.5-28.5T480-680q-17 0-28.5 11.5T440-640q0 17 11.5 28.5T480-600Zm320 440H160q-33 0-56.5-23.5T80-240v-160q33 0 56.5-23.5T160-480q0-33-23.5-56.5T80-560v-160q0-33 23.5-56.5T160-800h640q33 0 56.5 23.5T880-720v160q-33 0-56.5 23.5T800-480q0 33 23.5 56.5T880-400v160q0 33-23.5 56.5T800-160Zm0-80v-102q-37-22-58.5-58.5T720-480q0-43 21.5-79.5T800-618v-102H160v102q37 22 58.5 58.5T240-480q0 43-21.5 79.5T160-342v102h640ZM480-480Z"
     id="path1681"
     style="fill:#ac9d93" />
</svg>
